<svg width="174" height="64" viewBox="0 0 174 64" fill="none" xmlns="http://www.w3.org/2000/svg">
<path d="M73.3068 53.4545C71.4886 53.4545 69.8835 52.9953 68.4915 52.0767C67.0994 51.1487 66.0104 49.8419 65.2244 48.1562C64.4384 46.4612 64.0455 44.4583 64.0455 42.1477C64.0455 39.8561 64.4384 37.8674 65.2244 36.1818C66.0104 34.4962 67.1042 33.1941 68.5057 32.2756C69.9072 31.357 71.5265 30.8977 73.3636 30.8977C74.7841 30.8977 75.9063 31.1345 76.7301 31.608C77.5634 32.072 78.1979 32.6023 78.6335 33.1989C79.0786 33.786 79.4242 34.2689 79.6705 34.6477H79.9545V23.9091H83.3068V53H80.0682V49.6477H79.6705C79.4242 50.0455 79.0739 50.5473 78.6193 51.1534C78.1648 51.75 77.5161 52.285 76.6733 52.7585C75.8305 53.2225 74.7083 53.4545 73.3068 53.4545ZM73.7614 50.4432C75.1061 50.4432 76.2424 50.0928 77.1705 49.392C78.0985 48.6818 78.804 47.7017 79.2869 46.4517C79.7699 45.1922 80.0114 43.7386 80.0114 42.0909C80.0114 40.4621 79.7746 39.0369 79.3011 37.8153C78.8277 36.5843 78.1269 35.6278 77.1989 34.946C76.2708 34.2547 75.125 33.9091 73.7614 33.9091C72.3409 33.9091 71.1572 34.2737 70.2102 35.0028C69.2727 35.7225 68.5672 36.7027 68.0938 37.9432C67.6297 39.1742 67.3977 40.5568 67.3977 42.0909C67.3977 43.6439 67.6345 45.0549 68.108 46.3239C68.5909 47.5833 69.3011 48.5871 70.2386 49.3352C71.1856 50.0739 72.3598 50.4432 73.7614 50.4432ZM103.662 44.0795V31.1818H107.014V53H103.662V49.3068H103.435C102.923 50.4148 102.128 51.357 101.048 52.1335C99.9688 52.9006 98.6051 53.2841 96.9574 53.2841C95.5938 53.2841 94.3816 52.9858 93.321 52.3892C92.2604 51.7831 91.4271 50.8741 90.821 49.6619C90.215 48.4403 89.9119 46.9015 89.9119 45.0455V31.1818H93.2642V44.8182C93.2642 46.4091 93.7093 47.678 94.5994 48.625C95.4991 49.572 96.6449 50.0455 98.0369 50.0455C98.8703 50.0455 99.7178 49.8324 100.58 49.4062C101.451 48.9801 102.18 48.3267 102.767 47.446C103.364 46.5653 103.662 45.4432 103.662 44.0795ZM114.802 53H111.109L121.79 23.9091H125.427L136.109 53H132.415L123.722 28.5114H123.495L114.802 53ZM116.165 41.6364H131.052V44.7614H116.165V41.6364ZM144.163 23.9091V53H140.64V23.9091H144.163Z" fill="white"/>
<path d="M45.1442 54.724L25.1596 33.584L37.9179 21.523L40.0647 23.7939L29.8663 33.4349L36.6189 40.5779L46.1567 31.5614L48.3035 33.8323L38.7657 42.8488L45.5573 50.0331L55.9209 40.236L58.0677 42.5069L45.1442 54.724Z" fill="white"/>
<line x1="35.5687" y1="25.7823" x2="46.4117" y2="14.6724" stroke="white" stroke-width="4"/>
<line x1="44.9155" y1="15.1947" x2="56.3848" y2="14.7097" stroke="white" stroke-width="4"/>
<circle cx="61.5335" cy="15.0955" r="4.67622" transform="rotate(59.2347 61.5335 15.0955)" stroke="white"/>
<circle cx="150.742" cy="32.7416" r="1.5" transform="rotate(59.2347 150.742 32.7416)" stroke="white"/>
<line y1="-2" x2="11.7487" y2="-2" transform="matrix(-0.0296755 -0.99956 -0.999882 0.0153831 103.76 43.5269)" stroke="white" stroke-width="4"/>
<line y1="-2" x2="11.9633" y2="-2" transform="matrix(-0.710108 -0.704092 -0.720905 0.693034 104 33.7217)" stroke="white" stroke-width="4"/>
<path d="M88.0305 21.851C88.8038 24.3948 91.5392 25.8823 94.1495 25.1565C96.7599 24.4308 98.2352 21.7728 97.462 19.2289C96.6887 16.6851 93.9533 15.1977 91.343 15.9234C88.7327 16.6491 87.2573 19.3072 88.0305 21.851Z" stroke="white"/>
<line x1="122.576" y1="26.596" x2="133.419" y2="15.5959" stroke="white" stroke-width="4"/>
<line x1="131.47" y1="16.4334" x2="146.981" y2="15.7776" stroke="white" stroke-width="4"/>
<circle cx="153.914" cy="15.5955" r="6.5" transform="rotate(59.2347 153.914 15.5955)" stroke="white"/>
<line y1="-2" x2="15.7842" y2="-2" transform="matrix(0.158984 -0.987281 -0.979503 -0.20143 115.343 44.0513)" stroke="white" stroke-width="4"/>
<line y1="-2" x2="11.9787" y2="-2" transform="matrix(-0.5492 -0.835691 -0.843992 0.536356 118.128 31.1934)" stroke="white" stroke-width="4"/>
<path d="M105.035 16.2342C105.304 18.8866 107.655 20.9056 110.276 20.7554C112.897 20.6052 114.814 18.3417 114.545 15.6893C114.277 13.037 111.926 11.0179 109.304 11.1681C106.683 11.3183 104.766 13.5818 105.035 16.2342Z" stroke="white"/>
<circle cx="55.7415" cy="46.7416" r="1.5" transform="rotate(59.2347 55.7415 46.7416)" stroke="white"/>
<line x1="36.9025" y1="43.4665" x2="21.5932" y2="40.8925" stroke="white" stroke-width="4"/>
<line x1="22.7554" y1="41.2321" x2="13.3737" y2="28.8635" stroke="white" stroke-width="4"/>
<circle cx="9.27108" cy="23.2713" r="6.5" transform="rotate(-65.5248 9.27108 23.2713)" stroke="white"/>
<line x1="36.1103" y1="42.101" x2="25.2107" y2="31.0466" stroke="white" stroke-width="4"/>
<line x1="25.9537" y1="32.0026" x2="25.5959" y2="16.4826" stroke="white" stroke-width="4"/>
<line x1="54.8975" y1="43.3679" x2="55.8975" y2="46.3699" stroke="white" stroke-width="4"/>
<circle cx="25.547" cy="9.54687" r="6.5" transform="rotate(-29.6643 25.547 9.54687)" stroke="white"/>
<line x1="143.842" y1="35.5257" x2="149.842" y2="33.5257" stroke="white"/>
</svg>
